<svg xmlns="http://www.w3.org/2000/svg" viewBox="0 0 319.53 383.25"><defs><style>.cls-1{fill:#fff;}</style></defs><g id="Capa_2" data-name="Capa 2"><g id="Capa_1-2" data-name="Capa 1"><path class="cls-1" d="M319.53,191.36c-.83,11.07-4.94,19.8-14.81,25.67Q169.31,297.45,34.05,378.09c-5.65,3.36-11.39,6.33-18.31,4.7A20,20,0,0,1,.17,364.87a48.75,48.75,0,0,1-.16-5Q0,191.49,0,23.1C0,11.06,5.23,3.35,15,.65,21.1-1,26.49.69,31.66,3.77q77.09,45.9,154.18,91.76,59.54,35.41,119.09,70.81C314.61,172.08,318.61,180.79,319.53,191.36Z"/></g></g></svg>